<?xml version="1.0" standalone="no"?>
<!DOCTYPE svg PUBLIC "-//W3C//DTD SVG 1.1//EN" "http://www.w3.org/Graphics/SVG/1.1/DTD/svg11.dtd" >
<!--
2013-9-30: Created.
-->
<svg>
<metadata>
Created by iconfont
</metadata>
<defs>

<font id="iconfont" horiz-adv-x="1024" >
  <font-face
    font-family="iconfont"
    font-weight="500"
    font-stretch="normal"
    units-per-em="1024"
    ascent="896"
    descent="-128"
  />
    <missing-glyph />
    
    <glyph glyph-name="guanbi" unicode="&#59059;" d="M512 774.32787c-215.555357 0-390.32787-174.772512-390.32787-390.32787S296.445666-6.326846 512-6.326846c215.618802 0 390.326846 174.771489 390.326846 390.326846S727.618802 774.32787 512 774.32787zM699.996698 241.237529c13.179161-13.246699 13.179161-34.7085 0-47.989991-6.690376-6.590092-15.365966-9.937326-24.045649-9.937326-8.679683 0-17.287735 3.347235-23.978111 9.937326L513.574868 331.654818 375.176798 193.247538c-6.689353-6.590092-15.369036-9.937326-24.044626-9.937326-8.679683 0-17.287735 3.347235-23.983227 9.937326-13.180184 13.280468-13.180184 34.743292 0 47.989991l138.41649 138.431839L327.154062 518.100184c-13.1853 13.246699-13.1853 34.709523 0 47.989991 13.246699 13.218046 34.7085 13.218046 48.022737 0l138.399093-138.412396 147.059334 147.07366c13.247722 13.218046 34.709523 13.218046 48.02376 0 13.184277-13.279445 13.184277-34.743292 0-47.989991L561.579185 379.668345 699.996698 241.237529z"  horiz-adv-x="1024" />

    
    <glyph glyph-name="shouji" unicode="&#58960;" d="M816.111253-104.936725l-561.604768 0c-56.611346 0-102.504582 45.893236-102.504582 102.504582 0 267.936355 0 535.87271 0 803.810089C170.379459 856.837048 209.41245 873.788116 266.309298 872.905002c167.838589-2.606361 335.743694-0.859577 503.622192-0.963954 73.635067-0.046049 101.05865-27.585265 101.08321-101.550861 0.082888-252.469082-1.092891-504.947374 0.972141-757.400083C872.40435-38.121993 861.355713-78.177268 816.111253-104.936725zM768.972653 476.891643c0 79.342046 0.404206 158.687162-0.171915 238.025115-0.285502 39.238676-15.407921 55.085596-53.928237 55.245232-133.969201 0.557702-267.943518 0.500397-401.913742 0.048095-39.376823-0.13303-55.29742-14.761192-55.486732-53.905724-0.772596-159.981644-0.308015-319.969429-0.38681-479.955166-0.01842-36.498262 16.954137-55.623855 54.459333-55.577806 133.971247 0.163729 267.945565-0.39295 401.913742 0.317225 41.392736 0.218988 55.172577 15.479553 55.401798 57.773821C769.287831 318.205505 768.982886 397.549597 768.972653 476.891643zM514.323928-2.987798c29.639041 4.702092 47.847751 20.966521 49.865711 50.746778 1.856277 27.399023-24.337291 51.380204-52.444443 50.630121-29.064966-0.775666-50.649564-24.295336-48.282656-53.655014C465.973734 13.575436 485.736846 0.291898 514.323928-2.987798z"  horiz-adv-x="1024" />

    
    <glyph glyph-name="tuijianren" unicode="&#58882;" d="M762.137405 653.679389c0 132.885496-109.435115 242.320611-242.320611 242.320611C386.931298 896 277.496183 786.564885 277.496183 653.679389c0-132.885496 109.435115-242.320611 242.320611-242.320611C652.70229 407.450382 762.137405 516.885496 762.137405 653.679389zM1168.610687 102.59542c0 3.908397-3.908397 7.816794-7.816794 11.725191l-175.877863 175.877863c-11.725191 11.725191-35.175573 11.725191-50.80916 0-11.725191-11.725191-11.725191-35.175573 0-50.80916l117.251908-117.251908-383.022901 0c-19.541985 0-35.175573-15.633588-35.175573-35.175573 0-19.541985 15.633588-35.175573 35.175573-35.175573L1055.267176 51.78626l-117.251908-117.251908c-11.725191-11.725191-11.725191-35.175573 0-50.80916 7.816794-7.816794 15.633588-11.725191 23.450382-11.725191 7.816794 0 19.541985 3.908397 23.450382 11.725191l175.877863 175.877863c3.908397 3.908397 3.908397 7.816794 7.816794 11.725191C1172.519084 86.961832 1172.519084 94.778626 1168.610687 102.59542zM672.244275-10.748092c-58.625954 0-105.526718 46.900763-105.526718 105.526718 0 58.625954 46.900763 105.526718 105.526718 105.526718l214.961832 0C867.664122 215.938931 859.847328 243.29771 859.847328 270.656489c0 3.908397 0 7.816794 0 15.633588-89.89313 78.167939-211.053435 125.068702-340.030534 125.068702C234.503817 407.450382 0 176.854962 0-112.366412l863.755725 0C859.847328-104.549618 859.847328-92.824427 859.847328-85.007634c0 27.358779 11.725191 50.80916 27.358779 70.351145L672.244275-14.656489z"  horiz-adv-x="1173" />

    
    <glyph glyph-name="yanzhengma" unicode="&#59002;" d="M894.901377 754.969439c-9.169584-0.315151-18.141821-0.432955-26.952959-0.432955-231.364105 0-333.335077 100.214987-334.209042 101.148357l-23.059385 23.869917L487.453465 855.684841c-0.909206-1.051174-100.854351-101.148357-334.165746-101.148357-8.810131 0-17.748134 0.117804-26.996255 0.432955l-32.464577 1.042113L93.826887 301.526603c0-119.006241 42.035903-292.575888 405.416044-425.383324l11.357517-4.143279 11.348455 4.143279C885.333071 8.950715 927.370988 182.520362 927.370988 301.526603L927.370988 756.011551 894.901377 754.969439 894.901377 754.969439 894.901377 754.969439zM474.877633 183.952134 265.495559 370.50741l55.610553 45.261921 111.335889-82.579622c0 0 153.68795 159.927537 302.139159 234.600192l21.195665-23.983693C755.776824 543.806209 570.253592 389.184888 474.877633 183.952134L474.877633 183.952134 474.877633 183.952134zM474.877633 183.952134"  horiz-adv-x="1024" />

    
    <glyph glyph-name="jizhumima-yixuanze" unicode="&#59201;" d="M970.599789-125.158279H53.400211c-27.807323 0-50.558489 22.751167-50.55849 50.55849V842.599789c0 27.807323 22.751167 50.558489 50.55849 50.55849h917.199578c27.807323 0 50.558489-22.751167 50.55849-50.55849v-917.199578c0-27.807323-22.751167-50.558489-50.55849-50.55849zM488.162082 138.627547l0.433882 0.433881 411.972842 446.280206c11.499915 12.45773 10.723226 31.880081-1.734504 43.38102-12.456706 11.499915-31.879058 10.724249-43.381019-1.733481L444.644963 181.967634a0.851391 0.851391 0 0 0-0.76748 0.016373l-216.562291 230.230592c-11.617595 12.349259-31.04404 12.9438-43.395346 1.327228-12.349259-11.616572-12.9438-31.045063-1.327228-43.395346l217.141482-230.845599 0.653893-0.674359c12.099572-12.098549 27.993564-18.148335 43.887556-18.148335 15.892969 0 31.78696 6.049786 43.886533 18.149359z"  horiz-adv-x="1024" />

    
    <glyph glyph-name="touzi_" unicode="&#59004;" d="M512 896a512 512 0 0 1-512-512 512 512 0 1 1 512 512z m176.071111-486.968889V351.573333H548.010667v-79.018666h140.060444v-58.083556H548.010667v-115.086222h-72.248889v115.086222h-145.066667v58.026667h145.180445V351.573333H330.752V409.031111h123.904L303.559111 668.501333h81.237333c70.542222-128.910222 113.493333-210.659556 128.682667-245.134222h1.536c5.12 14.222222 19.228444 42.951111 42.211556 86.016l86.414222 159.175111h76.8L567.921778 409.031111h120.206222z"  horiz-adv-x="1024" />

    
    <glyph glyph-name="youbian" unicode="&#58895;" d="M340.032 44.224a47.872 47.872 0 0 0 2.176 67.456L643.84 394.24 332.672 685.568a47.616 47.616 0 0 0 65.216 69.568l348.16-326.08a47.616 47.616 0 0 0 0-69.568l-338.688-317.312a47.744 47.744 0 0 0-67.328 2.048z"  horiz-adv-x="1024" />

    
    <glyph glyph-name="sousuo" unicode="&#58881;" d="M716.8 684.8C576 819.2 352 819.2 211.2 684.8c-140.8-140.8-140.8-364.8 0-505.6 64-64 153.6-102.4 249.6-102.4s185.6 38.4 249.6 102.4 102.4 153.6 102.4 249.6-32 192-96 256z m-582.4-582.4C51.2 185.6 0 300.8 0 428.8 0 684.8 211.2 896 467.2 896s467.2-211.2 467.2-467.2c0-128-51.2-243.2-134.4-326.4-83.2-83.2-198.4-134.4-326.4-134.4s-256 51.2-339.2 134.4z m870.4-211.2c-12.8-12.8-25.6-19.2-44.8-19.2-19.2 0-32 6.4-44.8 19.2l-89.6 89.6c-12.8 12.8-19.2 25.6-19.2 44.8 0 32 25.6 64 64 64 19.2 0 32-6.4 44.8-19.2l89.6-89.6c12.8-12.8 19.2-25.6 19.2-44.8 0-19.2-6.4-32-19.2-44.8z"  horiz-adv-x="1024" />

    
    <glyph glyph-name="yonghu" unicode="&#58963;" d="M501.537206 384c138.985448 0 251.649414 110.025882 251.649413 245.653863S640.522654 875.186975 501.537206 875.186975c-139.045823 0-251.709789-109.905132-251.709789-245.593487 0-135.567605 112.663966-245.593488 251.709789-245.593488z m115.302049-81.84403H407.101393c-179.458231 0-325.039911-142.04411-325.039911-317.245387v-20.445658c0-71.591525 145.521305-71.6519 325.039911-71.6519H616.839255c179.577958 0 325.099263 2.638083 325.099263 71.6519v20.445658c0 175.201278-145.521305 317.245388-325.099263 317.245387z"  horiz-adv-x="1024" />

    
    <glyph glyph-name="quanbu" unicode="&#58940;" d="M523.776 184.32h-239.616c-23.04 0-41.984-18.944-41.984-41.984 0-23.04 18.944-41.984 41.984-41.984h239.616c23.04 0 41.984 18.944 41.984 41.984 0 23.552-18.944 41.984-41.984 41.984z m219.136 227.328h-458.752c-23.04 0-41.984-18.944-41.984-41.984 0-23.04 18.944-41.984 41.984-41.984h458.752c23.04 0 41.984 18.944 41.984 41.984 0 23.04-18.432 41.984-41.984 41.984z m0 218.624h-458.752c-23.04 0-41.984-18.944-41.984-41.984 0-23.04 18.944-41.984 41.984-41.984h458.752c23.04 0 41.984 18.944 41.984 41.984s-18.432 41.984-41.984 41.984z"  horiz-adv-x="1024" />

    
    <glyph glyph-name="icon-test" unicode="&#58915;" d="M1364.877005 734.459893L639.315508 8.898396l-134.160428-136.898396L28.748663 345.668449c-38.331551 38.331551-38.331551 98.566845 0 134.160428 38.331551 38.331551 98.566845 38.331551 136.898396 0l339.508021-339.508021 725.561498 725.561497c38.331551 38.331551 98.566845 38.331551 136.898395 0s35.593583-95.828877-2.737968-131.42246z"  horiz-adv-x="1395" />

    
    <glyph glyph-name="shangcheng" unicode="&#58890;" d="M851.456 245.248c-5.632-3.072-11.264-5.632-17.408-7.68-17.408-6.656-37.376-9.728-59.392-10.24-47.616 0-92.16 20.48-122.368 56.32l-10.752 12.8-10.752-12.8c-29.696-35.328-74.24-56.32-120.32-56.832-47.104 0.512-91.648 20.992-121.856 56.832l-11.264 12.8-10.24-12.8c-30.72-35.84-74.752-56.832-122.368-56.832-25.088 0-48.128 4.608-67.584 13.312l-2.56 1.536-4.096 2.048-4.096 2.048a173.783 173.783 0 0 0-27.136 19.456v-231.424c0-36.352 30.208-66.56 67.072-66.56l595.456 0.512c36.864 0 67.072 30.208 67.072 66.56V256.512c-5.12-4.096-11.264-7.68-17.408-11.264zM927.232 484.352l-0.512 3.072c0 0.512-0.512 1.536-0.512 2.048l-74.24 184.32c-10.752 32.256-41.984 52.736-79.872 52.736H251.392c-36.864 0-65.536-18.944-76.8-49.152v-1.536L94.208 485.888c-5.632-17.408-8.704-33.792-8.704-50.688 0-57.856 31.744-110.592 81.92-138.752h10.24v-5.12c19.968-8.704 42.496-13.312 67.584-13.312 47.104 0 91.648 20.992 122.368 56.832l10.24 12.8 10.752-12.8c30.208-35.84 74.24-56.32 121.856-56.832 46.592 0.512 90.624 20.992 120.32 56.832l10.752 12.8 10.752-12.8c30.208-35.84 74.752-56.32 122.368-56.32 29.184 0 55.296 6.144 76.288 17.92 51.2 28.16 83.456 81.408 83.456 139.776 0.512 15.36-2.048 32.256-7.168 48.128zM757.76 472.064H251.904c-9.728 0-17.408 7.68-17.408 17.408s7.68 17.408 17.408 17.408H757.76c9.728 0 17.408-7.68 17.408-17.408s-7.68-17.408-17.408-17.408z"  horiz-adv-x="1024" />

    
    <glyph glyph-name="biangeng" unicode="&#58947;" d="M807.1 552.6L638.5 384H765c0-139.5-113.4-252.9-252.9-252.9-42.6 0-83.1 10.5-118 29.5L332.4 99c51.9-32.9 113.4-52.3 179.6-52.3 186.3 0 337.3 150.9 337.3 337.3h126.5L807.1 552.6zM259.1 384c0 139.5 113.4 252.9 252.9 252.9 42.6 0 83.1-10.5 118-29.5l61.6 61.6c-51.9 32.9-113.4 52.3-179.6 52.3-186.3 0-337.3-150.9-337.3-337.3H48.3l168.6-168.6L385.5 384H259.1z"  horiz-adv-x="1024" />

    
    <glyph glyph-name="start3" unicode="&#58880;" d="M813.192272 835.448926l-609.890494 0c-78.55717 0-142.239562-63.682391-142.239562-142.239562l0-611.937107c0-78.55717 63.682391-142.239562 142.239562-142.239562l609.890494 0c78.55717 0 142.239562 63.682391 142.239562 142.239562l0 611.937107C955.431833 771.7655110000001 891.748419 835.448926 813.192272 835.448926zM810.565445 429.282323L692.727643 314.42234199999996c-7.083326-6.907317-10.317996-16.856923-8.645914-26.609031l27.816532-162.188916c4.211928-24.554232-21.563108-43.282782-43.614333-31.6877l-145.653311 76.574003c-8.756431 4.607948-19.21769 4.607948-27.973098 0l-145.654334-76.574003c-22.055318-11.595083-47.826262 7.133468-43.61945 31.6877l27.821649 162.188916c1.673106 9.751085-1.562589 19.701714-8.645914 26.609031L206.72269 429.282323c-17.839297 17.392112-7.995091 47.689139 16.659425 51.27378l162.847925 23.658839c9.788947 1.424442 18.254759 7.571443 22.632463 16.448624l72.826656 147.561777c11.023054 22.341844 42.881646 22.341844 53.908794 0l72.826656-147.561777c4.378727-8.876158 12.843516-15.024182 22.63144-16.448624l162.847925-23.658839C818.560536 476.971461 828.404742 446.675458 810.565445 429.282323z"  horiz-adv-x="1024" />

    
    <glyph glyph-name="shangxia" unicode="&#59000;" d="M815.37493333 275.31413333h-605.81333333c-30.0928 0-47.90506667-19.40693333-33.46773333-34.21866666 22.59413333-24 289.96906667-303.93813333 303.56266666-317.344 19.312-16.50026667 47.7184-16.50026667 67.03146667 0 10.21866667 10.50026667 285.1872 300.74986667 301.5936 317.344 14.99946667 16.31253333-4.21866667 32.71893333-32.90666667 34.21866666z m-605.81333333 227.62453334h605.81333333c28.688 0 47.90613333 18 32.8128 34.21866666C831.78133333 553.56373333 556.90666667 843.9072 545.28 855.9072c-19.5936 15.7504-47.4368 15.7504-67.03146667 0C465.96906667 840.90773333 198.59413333 561.06346667 176 537.06346667c-14.34346667-14.71786667 3.4688-34.1248 33.56266667-34.1248z"  horiz-adv-x="1024" />

    
    <glyph glyph-name="jifen-copy" unicode="&#58997;" d="M780.9453125 706.33886719H245.03222656l-98.87695312-251.14746094 365.84472656-435.05859375 365.84472656 435.05859375-96.89941406 251.14746094zM512 298.96582031l-162.15820313 154.24804688 41.52832032 43.50585937 120.62988281-114.69726562 120.62988281 114.69726562 41.52832032-43.50585937-162.15820313-154.24804688zM245.03222656 706.33886719l-98.87695312-251.14746094 298.60839843-353.97949219c96.89941406 47.4609375 187.86621094 102.83203125 274.87792969 164.13574219l160.18066406 191.82128906-98.87695312 251.14746094H245.03222656zM512 298.96582031l-162.15820313 154.24804688 41.52832032 43.50585937 120.62988281-114.69726562 120.62988281 114.69726562 41.52832032-43.50585937-162.15820313-154.24804688z"  horiz-adv-x="1024" />

    
    <glyph glyph-name="xianshi" unicode="&#58934;" d="M938.666667 896C595.626667 896 328.021333 700.586667 0 384c282.624-270.677333 519.509333-512 938.666667-512C1357.312-128 1665.194667 177.493333 1877.333333 378.197333 1660.586667 613.205333 1352.533333 896 938.666667 896z m0-877.056c-207.018667 0-375.466667 163.84-375.466667 365.056 0 201.386667 168.448 365.056 375.466667 365.056S1314.133333 585.216 1314.133333 384c0-201.386667-168.448-365.056-375.466666-365.056z m0 493.226667a124.586667 124.586667 0 0 0 32.085333 82.773333A180.906667 180.906667 0 0 1 938.666667 597.333333c-120.661333 0-219.136-95.573333-219.136-213.333333S818.005333 170.666667 938.666667 170.666667c120.661333 0 219.136 95.573333 219.136 213.333333 0 9.557333-1.024 18.432-1.877334 27.818667A140.117333 140.117333 0 0 0 1072.810667 384c-74.069333 0-134.144 57.344-134.144 128z"  horiz-adv-x="1877" />

    
    <glyph glyph-name="wode" unicode="&#58892;" d="M511.4 831.2C331.7 831.2 186 685.5 186 505.8s145.7-325.4 325.4-325.4S836.8 326 836.8 505.8c0 179.7-145.7 325.4-325.4 325.4z m135.7-450.4c-138.5-131-271.3 0-271.7 0.3-8.3 8.4-8.3 21.9 0 30.3 8.4 8.3 21.9 8.3 30.3 0 0.3-0.3 103.8-102.3 212.2 0.3 8.5 8.1 22 7.7 30.1-0.9 8.1-8.5 7.7-22-0.9-30z m0 0M926.4-19.600000000000023c-37.8 78.1-96.9 144-170.4 190-19.6 12.1-40.1 22.6-61.3 31.6-55.2-33.6-118.6-51.3-183.3-51.4-67.1 0-129.7 19-183.3 51.4-21-9.1-41.5-19.3-61-31.4-73.5-46.2-132.5-112-170.4-190.1-3.5-7.2-4-15.5-1.3-23 2.7-7.7 8.1-13.8 15.3-17.2 2.8-1.4 5.9-1.6 8.9-2l-0.7-1.1h780.4c4.5 0 8.9 1 13 3 7.2 3.5 12.7 9.6 15.3 17.2 2.8 7.5 2.3 15.8-1.2 23z m0 0"  horiz-adv-x="1024" />

    
    <glyph glyph-name="guanbi1" unicode="&#58912;" d="M583.168 372.224L958.464 747.52c18.944 18.944 18.944 50.176 0 69.12l-2.048 2.048c-18.944 18.944-50.176 18.944-69.12 0L512 442.88 136.704 818.688c-18.944 18.944-50.176 18.944-69.12 0l-2.048-2.048c-19.456-18.944-19.456-50.176 0-69.12l375.296-375.296L65.536-3.072c-18.944-18.944-18.944-50.176 0-69.12l2.048-2.048c18.944-18.944 50.176-18.944 69.12 0L512 301.056 887.296-74.24c18.944-18.944 50.176-18.944 69.12 0l2.048 2.048c18.944 18.944 18.944 50.176 0 69.12L583.168 372.224z"  horiz-adv-x="1024" />

    
    <glyph glyph-name="chongzhi" unicode="&#59039;" d="M941.787 666.21c0 72.493-62.138 134.631-134.632 134.631H232.38c-72.494 0-134.632-62.138-134.632-134.632v-572.186c0-72.494 62.138-134.632 134.632-134.632h572.186c72.494 0 134.632 62.138 134.632 134.632v142.4H636.276c0 2.589-116.509-7.768-116.509 137.22 0 155.345 126.865 144.989 126.865 144.989h295.155V666.209zM574.138 376.233c0-100.974 90.618-90.618 90.618-90.618H931.43v194.18H672.523c0-2.588-98.385 5.179-98.385-103.562z m100.974 44.014c18.123 0 33.658-15.534 33.658-33.658 0-12.945-7.767-23.302-18.124-31.069-10.356-5.178-23.301-5.178-33.658 0s-18.123 18.124-18.123 31.07c2.589 18.123 18.123 33.657 36.247 33.657z"  horiz-adv-x="1024" />

    
    <glyph glyph-name="mima" unicode="&#58916;" d="M780.8 460.8V576S780.8 844.8 512 844.8 243.2 576 243.2 576V460.8H177.152c-27.136 0-49.152-22.016-49.152-49.152v-439.808c0-27.136 22.016-49.152 49.152-49.152h670.208c27.136 0 49.152 22.016 49.152 49.152V411.648c0 27.136-22.016 49.152-49.152 49.152h-66.56m-230.4-296.448v-125.952h-76.8v125.952C450.56 177.664 435.2 202.24 435.2 230.4c0 42.496 34.304 76.8 76.8 76.8s76.8-34.304 76.8-76.8c0-28.16-15.36-52.736-38.4-66.048z m153.6 296.448h-384V575.488C320.512 607.744 331.776 768 512 768s191.488-160.256 192-192V460.8"  horiz-adv-x="1024" />

    
    <glyph glyph-name="shouye" unicode="&#58883;" d="M677.888 52.224L538.624 218.112l58.368 58.368 257.024 257.024c20.48-46.08 31.744-96.256 31.744-148.48-1.024-146.432-84.992-272.384-207.872-332.8zM515.072 585.728l-143.36 142.336c43.008 17.408 90.112 27.648 140.288 27.648 130.048 0 244.736-66.56 311.296-166.912L667.648 433.152 515.072 585.728zM409.6 483.328L162.816 256c-14.336 39.936-23.552 82.944-23.552 128 0 133.12 70.656 249.856 176.128 315.392L471.04 543.744l-61.44-60.416z m45.056-260.096l162.816-195.584c-33.792-10.24-68.608-15.36-105.472-15.36-137.216 0-258.048 74.752-321.536 185.344l156.672 147.456 107.52-121.856z"  horiz-adv-x="1024" />

    
    <glyph glyph-name="linghuobianjie" unicode="&#58884;" d="M506.368 840.192c122.88 16.384 243.2-13.824 341.504-87.552s163.84-182.784 180.224-303.104c35.328-251.392-139.264-486.4-390.656-521.728-106.496-16.384-212.992 8.192-305.664 62.976-16.384 8.192-22.016 30.208-10.752 46.592 8.192 16.384 30.208 22.016 46.592 10.752 79.36-46.592 172.032-65.536 262.144-54.784 215.552 30.208 366.08 231.936 335.872 448-16.384 103.936-71.168 196.608-155.648 259.584S621.056 791.04 517.12 774.656C298.496 744.96 148.48 542.72 181.248 327.168c8.192-57.344 27.136-109.056 57.344-155.648 10.752-16.384 5.632-35.328-10.752-46.592-13.824-10.752-35.328-5.632-43.52 10.752-35.328 54.784-59.904 117.248-68.096 182.784-16.384 122.88 13.824 243.2 87.552 341.504 13.824 18.944 27.136 35.328 43.52 49.152 67.584 71.168 160.256 117.76 259.072 131.072zM695.808 427.008h-112.64l28.672 223.232-225.792-293.888H501.76L472.576 133.12l223.232 293.888z"  horiz-adv-x="1143" />

    
    <glyph glyph-name="quanmiankongzhi" unicode="&#58885;" d="M526.336-60.928c-5.12 0-9.728 0.512-14.848 1.024-13.312 2.56-35.328 7.68-65.536 20.48-45.056 18.944-87.04 46.08-124.416 79.872-115.2 105.472-174.08 264.704-174.08 473.6V643.584c0 23.04 9.728 45.568 27.136 60.928 15.872 14.336 36.352 22.016 57.856 22.016H238.592c1.536 0 10.24-0.512 19.968-0.512 36.352 0 72.192 3.584 100.864 10.24 1.024 0 2.048 0.512 3.072 0.512 18.944 5.12 40.96 16.896 64.512 34.304 17.408 12.8 47.616 39.424 50.688 42.496l6.144-6.144-4.608 7.168c13.824 8.704 30.208 13.824 46.592 13.824 16.896 0 32.768-4.608 46.592-13.824 2.56-1.536 10.24-7.68 24.064-18.432 11.776-9.216 24.576-19.456 31.232-24.064 17.92-13.312 33.792-22.528 47.616-29.184 7.168-3.584 13.824-5.632 19.968-7.168 36.352-8.704 74.24-10.24 99.84-10.24 10.24 0 18.944 0.512 20.48 0.512h6.144c21.504 0 41.984-7.68 57.856-22.016 17.408-15.872 27.136-37.888 27.136-60.928v-129.536c0-208.896-58.88-368.128-175.104-473.6-37.376-33.792-79.36-60.928-125.44-79.872-30.208-12.8-52.736-17.92-66.048-20.48-3.584-0.512-8.704-0.512-13.824-0.512zM232.96 664.064c-6.144 0-11.264-2.048-15.872-5.632-4.096-3.584-6.656-9.216-6.656-14.848v-129.536c0-190.464 51.712-333.824 153.6-427.008 31.744-29.184 67.584-52.224 106.496-68.608 26.112-10.752 43.52-14.848 51.712-16.384 1.536 0 2.56-0.512 4.096-0.512 1.536 0 3.072 0 4.096 0.512 8.192 1.536 26.112 5.632 52.224 16.384 38.912 16.384 75.264 39.424 107.52 68.608 102.4 93.184 154.624 236.544 154.624 427.008V643.584c0 5.632-2.56 10.752-6.656 14.848l-1.024 0.512c-4.096 3.584-9.216 5.12-14.848 5.12h-1.024c-4.608-0.512-15.36-0.512-25.088-0.512-41.472 0-80.896 4.096-114.176 12.288-9.728 2.56-20.48 6.144-31.744 11.264-17.92 8.192-36.864 19.456-58.368 35.328-9.216 6.656-26.112 19.968-38.4 29.696-6.656 5.12-13.312 10.752-14.336 11.264-3.584 2.56-8.192 3.584-12.8 3.584-3.584 0-7.168-1.024-10.752-2.56-3.072-3.584-8.192-8.192-17.408-15.872-12.288-10.752-24.576-20.48-33.792-27.136-30.72-22.528-58.368-36.864-84.992-44.032-1.536-0.512-3.584-1.024-5.12-1.536-42.496-10.24-86.016-12.288-115.2-12.288-10.752 0-21.504 0.512-25.088 0.512h-1.024zM874.496 698.368c-14.336 12.8-32.768 19.968-51.712 19.968h-5.12c-2.048 0-11.776-0.512-21.504-0.512-33.28 0-69.632 3.072-101.888 10.752-6.656 1.536-13.824 4.096-21.504 7.68-14.848 6.656-31.232 16.896-49.152 29.696-12.8 9.728-50.176 39.424-54.784 42.496-12.288 8.192-27.136 12.288-41.984 12.288-14.848 0-29.184-4.096-41.984-12.288 2.56 1.536-31.744-29.184-51.712-43.52-23.552-17.408-46.592-29.696-67.072-35.328-1.024-0.512-2.048-0.512-3.584-1.024-31.744-7.68-69.12-10.752-102.912-10.752-9.728 0-18.944 0.512-20.48 0.512h-5.632c-18.944 0-37.888-7.168-51.712-19.968-15.36-13.824-24.576-33.792-24.576-54.784v-129.536c0-216.576 63.488-368.64 171.008-466.944 38.4-35.328 79.872-60.928 121.856-78.336 26.624-11.264 48.128-17.408 63.488-19.968 4.608-0.512 9.216-1.024 13.312-1.024s8.704 0.512 13.312 1.024c15.872 2.56 37.376 8.704 64 19.968 42.496 17.92 83.968 43.52 122.88 78.336 108.032 98.304 172.544 250.368 172.544 466.944V643.584c-1.024 20.992-9.728 40.448-25.088 54.784z m-30.72-33.792c6.144-5.632 9.728-13.312 9.728-20.992v-129.536c0-203.776-58.88-344.064-157.696-433.664-34.816-31.232-72.192-54.272-110.08-70.144-23.552-9.728-41.984-14.848-54.272-16.896-1.536-0.512-3.584-0.512-5.632-0.512-2.048 0-4.096 0-5.632 0.512-11.776 2.048-30.208 7.168-53.248 16.896-37.376 15.872-74.752 38.912-109.056 70.144-97.792 89.088-156.16 229.376-156.16 433.664V643.584c0 8.192 3.584 15.36 9.728 20.992 5.632 5.12 13.312 8.192 21.504 8.192h2.048c2.56-0.512 13.312-0.512 24.576-0.512 36.864 0 77.312 3.584 113.152 11.776 1.536 0.512 3.072 1.024 5.12 1.024 26.624 7.168 54.272 22.016 81.92 42.496 22.528 16.384 55.808 46.592 49.664 42.496 4.608 3.072 10.752 5.12 17.408 5.12 6.144 0 12.288-1.536 17.408-5.12 2.56-1.536 38.4-30.208 52.736-40.96 19.968-14.848 38.912-26.112 56.832-34.304 10.24-4.608 20.48-8.192 29.696-10.752 35.84-8.704 75.776-11.776 112.128-11.776 11.264 0 22.016 0.512 25.088 0.512h1.024c8.704 0 16.384-3.072 22.016-8.192zM635.904 586.752L511.488 442.368c-8.192-9.216-7.168-23.552 2.048-31.744 9.216-8.192 23.552-7.168 31.744 2.048l124.416 143.872c8.192 9.216 7.168 23.552-2.048 31.744-9.216 8.704-23.552 7.68-31.744-1.536zM397.312 557.056l124.416-143.872c8.192-9.216 22.528-10.24 31.744-2.048 9.216 8.192 10.24 22.528 2.048 31.744L431.104 586.752c-8.192 9.216-22.528 10.24-31.744 2.048-9.216-8.192-10.24-22.528-2.048-31.744zM666.112 441.856H406.016c-12.288 0-22.528-10.24-22.528-22.528s10.24-22.528 22.528-22.528H665.6c12.288 0 22.528 10.24 22.528 22.528 0.512 12.8-9.728 22.528-22.016 22.528zM624.64 352.256H448c-12.288 0-22.528-10.24-22.528-22.528 0-12.288 10.24-22.528 22.528-22.528H624.64c12.288 0 22.528 10.24 22.528 22.528 0 12.288-10.24 22.528-22.528 22.528zM554.496 156.672V413.696c0 12.288-10.24 22.528-22.528 22.528-12.288 0-22.528-10.24-22.528-22.528v-257.024c0-12.288 10.24-22.528 22.528-22.528s22.528 9.728 22.528 22.528z"  horiz-adv-x="1024" />

    
    <glyph glyph-name="zijincunguan" unicode="&#58886;" d="M875.52-22.528H200.704c-55.808 0-101.376 45.568-101.376 101.376V689.152c0 55.808 45.568 101.376 101.376 101.376h677.888c55.808 0 101.376-45.568 101.376-101.376v-99.328c0-18.432-14.848-33.792-33.792-33.792-18.432 0-33.792 15.36-33.792 33.792V689.152c0 18.432-15.36 33.792-33.792 33.792H200.704c-18.432 0-33.792-15.36-33.792-33.792v-610.304c0-18.432 15.36-33.792 33.792-33.792H875.52c18.432 0 33.792 14.848 33.792 33.792v104.448c0 18.432 14.848 33.792 33.792 33.792 18.432 0 33.792-14.848 33.792-33.792v-104.448c-0.512-55.808-45.568-101.376-101.376-101.376z m-178.688 407.552c0 8.704 3.584 17.408 9.728 23.552 6.144 6.144 14.848 9.728 23.552 9.728 8.704 0 17.408-3.584 23.552-9.728 6.144-6.144 9.728-14.848 9.728-23.552 0-8.704-3.584-17.408-9.728-23.552-6.144-6.144-14.848-9.728-23.552-9.728-8.704 0-17.408 3.584-23.552 9.728-6.144 6.656-9.728 14.848-9.728 23.552z m280.064-132.608h-337.408c-37.376 0-67.584 30.208-67.584 67.584V454.656c0 37.376 30.208 67.584 67.584 67.584h337.408c37.376 0 67.584-30.208 67.584-67.584v-135.168c0-36.864-30.208-67.072-67.584-67.072z m-337.408 202.24v-135.168h337.408V454.656h-337.408z"  horiz-adv-x="1143" />

    
    <glyph glyph-name="zhenshitouming" unicode="&#58887;" d="M537.267532-63.279654c-21.721212 0-43.885714 1.77316-65.163636 4.876191-120.574892 16.845022-227.407792 80.678788-300.550649 178.645887-73.142857 97.9671-104.17316 218.541991-87.328139 339.116883 15.958442 117.915152 81.565368 227.851082 179.089178 300.99394C342.663203 820.197403 437.970563 851.670996 537.710823 851.670996c21.277922 0 42.999134-1.32987 64.720346-4.432901 98.41039-13.741991 190.171429-59.844156 257.551515-129.883982 14.628571-12.412121 27.927273-27.483983 43.442424-49.205195 72.256277-96.193939 102.84329-216.768831 86.884849-338.673593-7.979221-62.503896-31.473593-125.451082-67.823377-181.305628-5.762771-11.082251-17.731602-18.618182-30.587013-18.618182-7.092641 0-13.741991 2.21645-19.061472 6.649351-8.422511 5.762771-14.628571 14.185281-16.845021 23.051082-2.21645 9.752381-0.44329 19.504762 5.31948 28.370563 28.813853 44.772294 47.875325 95.750649 55.854546 151.161905 15.515152 101.51342-9.752381 202.58355-71.369697 285.035497-61.617316 82.895238-152.491775 136.090043-254.891775 150.275325-19.061472 3.10303-38.566234 4.4329-57.627706 4.432901-81.122078 0-159.141126-26.154113-226.521212-76.245888-81.565368-60.287446-135.203463-149.832035-151.161905-252.232035-14.185281-101.51342 11.968831-203.02684 73.586147-285.478787 61.617316-82.451948 151.605195-136.090043 253.118615-149.832035 15.958442-1.77316 32.360173-3.10303 48.318615-3.10303 72.699567 0 144.069264 19.504762 206.57316 55.854545 6.206061 3.98961 13.298701 6.206061 20.391342 6.206061 13.298701 0 25.267532-7.092641 31.030303-18.618182 5.762771-8.865801 7.535931-19.948052 4.87619-30.143723-2.65974-9.752381-8.865801-17.731602-17.731601-21.721212-74.472727-43.442424-157.367965-66.493506-238.490044-66.493507z m203.91342 220.315152c-8.865801 0-17.288312 3.54632-23.494372 9.752381l-84.225108 84.225108c-35.906494-26.154113-78.462338-39.896104-123.234632-39.896104-116.141991 0-210.119481 94.420779-210.119481 210.119481 0 116.141991 94.420779 210.119481 210.119481 210.11948 116.141991 0 210.119481-94.420779 210.11948-210.11948 0-43.885714-14.185281-87.771429-39.896104-123.234632l84.225109-84.225109c12.855411-12.855411 12.855411-34.133333 0-46.988744-6.206061-6.649351-14.628571-9.752381-23.494373-9.752381z m-232.283982 410.48658C428.661472 567.522078 363.497835 502.801732 363.497835 422.566234s65.163636-144.955844 145.399135-144.955844 145.399134 65.163636 145.399134 144.955844c0 80.235498-65.163636 144.955844-145.399134 144.955844zM985.877056 329.918615c-7.979221-64.277056-32.360173-126.337662-67.380086-179.975758-7.979221-15.958442-29.700433-21.277922-42.999135-10.638961-15.958442 10.638961-21.277922 29.700433-10.638961 45.658875 29.700433 45.658874 48.318615 96.637229 56.297836 152.935064 32.360173 212.335931-115.698701 410.92987-330.251082 440.187013C488.948918 794.04329 386.548918 767.445887 303.65368 705.385281 220.315152 644.211255 166.677056 552.893506 150.718615 450.936797c-29.700433-212.335931 118.358442-410.92987 330.251082-440.187013 88.658009-10.638961 179.975758 7.979221 257.994805 53.638095 15.958442 10.638961 37.679654 5.319481 45.658875-10.638961 10.638961-15.958442 5.319481-37.679654-10.638961-45.658875-91.317749-53.638095-195.934199-78.019048-300.99394-61.617316-247.355844 35.019913-418.909091 265.974026-384.332467 512.88658C105.05974 576.831169 169.336797 684.550649 265.974026 756.806926 362.611255 829.506494 480.969697 858.763636 601.987879 842.805195c96.637229-13.298701 187.954978-58.957576 255.335065-128.997403 15.958442-13.298701 29.700433-29.700433 42.999134-48.318615 72.256277-96.637229 101.95671-214.552381 85.554978-335.570562z m-224.304762-119.245022c11.082251-11.082251 11.082251-29.700433 0-40.782684-5.319481-5.319481-12.855411-8.422511-20.391342-8.422511-7.535931 0-15.071861 3.10303-20.391342 8.422511l-85.554978 85.554978-1.32987 1.329871c-35.906494-27.040693-78.462338-41.225974-123.677922-41.225974-113.482251 0-205.68658 92.204329-205.68658 205.68658 0 113.482251 92.204329 205.68658 205.68658 205.68658 113.482251 0 205.68658-92.204329 205.68658-205.68658 0-44.329004-14.628571-88.214719-41.225974-123.677922l1.32987-1.329871 85.554978-85.554978z m-252.675324 361.281385C426.445022 571.954978 359.064935 505.018182 359.064935 422.566234s66.936797-149.388745 149.832035-149.388745c82.451948 0 149.832035 66.936797 149.832034 149.388745s-67.380087 149.388745-149.832034 149.388744z m249.572294-364.827705c9.309091-9.309091 9.309091-24.824242 0-34.133334-9.309091-9.309091-24.824242-9.309091-34.133333 0l-85.554979 85.554979c-1.32987 1.32987-2.65974 3.10303-3.54632 4.4329-34.133333-27.040693-77.575758-43.442424-124.564502-43.442424-111.265801 0-201.25368 89.987879-201.25368 201.25368 0 111.265801 89.987879 201.25368 201.25368 201.253679 111.265801 0 201.25368-89.987879 201.25368-201.253679 0-45.215584-15.071861-89.101299-43.442425-124.564503 1.77316-0.88658 3.10303-2.21645 4.432901-3.54632l85.554978-85.554978zM508.89697 576.831169C423.785281 576.831169 354.632035 507.677922 354.632035 422.566234c0-85.111688 69.153247-154.264935 154.264935-154.264935 85.111688 0 154.264935 69.153247 154.264935 154.264935 0 85.111688-69.153247 154.264935-154.264935 154.264935z"  horiz-adv-x="1112" />

    


  </font>
</defs>
</svg>
